HIERARCHY
ROOT Hips
{
  OFFSET -160.753 94.3818 -369.72
  CHANNELS 6 Xposition Yposition Zposition Zrotation Xrotation Yrotation
  JOINT RightUpLeg
  {
    OFFSET -8.9458 -8.66707 0.101652
    CHANNELS 3 Zrotation Xrotation Yrotation
    JOINT RightLeg
    {
      OFFSET 0 -44.4227 1.3727
      CHANNELS 3 Zrotation Xrotation Yrotation
      JOINT RightFoot
      {
        OFFSET 0.253549 -42.0924 -1.46059
        CHANNELS 3 Zrotation Xrotation Yrotation
        JOINT RightToes
        {
          OFFSET 0.04 -4.41509 8.4991
          CHANNELS 3 Zrotation Xrotation Yrotation
          End Site
          {
            OFFSET -0.08 -0.137448 9.77979
          }
        }
      }
    }
  }
  JOINT Spine
  {
    OFFSET 0 11.8905 0
    CHANNELS 3 Zrotation Xrotation Yrotation
    JOINT Spine1
    {
      OFFSET 0 25.6574 0.127663
      CHANNELS 3 Zrotation Xrotation Yrotation
      JOINT HEad
      {
        OFFSET 0 8.73416 0.011341
        CHANNELS 3 Zrotation Xrotation Yrotation
        End Site
        {
          OFFSET -0.29 12.7742 2.51395
        }
      }
      JOINT LeftShoulder1
      {
        OFFSET 8.99 -0.362252 -0.22
        CHANNELS 3 Zrotation Xrotation Yrotation
        JOINT LeftArm
        {
          OFFSET 10.2827 -0.00338 0.322123
          CHANNELS 3 Zrotation Xrotation Yrotation
          JOINT LeftForeArm
          {
            OFFSET 32.7669 0.099144 -1.42434
            CHANNELS 3 Zrotation Xrotation Yrotation
            JOINT LeftHand
            {
              OFFSET 27.5643 0.085362 1.02216
              CHANNELS 3 Zrotation Xrotation Yrotation
              End Site
              {
                OFFSET 16.7443 -0.6 1.50291
              }
            }
          }
        }
      }
      JOINT RightShoulder
      {
        OFFSET -8.99 -0.362252 -0.22
        CHANNELS 3 Zrotation Xrotation Yrotation
        JOINT RightArm
        {
          OFFSET -10.2827 -0.00338 0.322123
          CHANNELS 3 Zrotation Xrotation Yrotation
          JOINT RightForeArm
          {
            OFFSET -32.8971 0.099144 -1.42434
            CHANNELS 3 Zrotation Xrotation Yrotation
            JOINT RightHand
            {
              OFFSET -27.4921 0.085362 1.02216
              CHANNELS 3 Zrotation Xrotation Yrotation
              End Site
              {
                OFFSET -16.6312 -0.6 1.50291
              }
            }
          }
        }
      }
    }
  }
  JOINT LeftUpLeg
  {
    OFFSET 8.9458 -8.66707 0.101652
    CHANNELS 3 Zrotation Xrotation Yrotation
    JOINT LeftLeg
    {
      OFFSET 0 -44.4227 1.3727
      CHANNELS 3 Zrotation Xrotation Yrotation
      JOINT LeftFoot
      {
        OFFSET -0.253549 -42.0924 -1.46059
        CHANNELS 3 Zrotation Xrotation Yrotation
        JOINT LeftToes
        {
          OFFSET -0.04 -4.41509 8.4991
          CHANNELS 3 Zrotation Xrotation Yrotation
          End Site
          {
            OFFSET 0.08 -0.047448 9.77979
          }
        }
      }
    }
  }
}
MOTION
Frames:	17
Frame Time:	0.0166667
-131.899 98.5489 -435.313 12.4383 10.7045 135.404 -28.3672 -0.307021 18.8082 45.2494 33.5959 -46.9941 -31.5499 1.44765 -1.56736 0.0462048 0.000533403 0.662642 -1.69349 23.7071 -0.794424 2.7798e-012 -5.55681e-009 -1.33583e-013 -3.94537 10.3783 13.5955 -7.95139e-016 1.59028e-015 -3.18055e-015 -168.418 -62.1066 -139.886 -95.1398 61.0674 -20.4327 19.013 17.5036 -15.5818 18.7546 7.35735 -3.31471 100.205 -11.4464 67.6875 32.1222 59.6122 95.635 15.6779 19.4089 -1.5627 19.0675 -8.18421 -7.24948 -24.8432 16.4607 60.3252 27.8075 -2.96009 1.52843 -1.18446e-009 1.5602e-007 -4.87132e-009 
-131.562 98.3341 -434.235 12.4556 10.6896 135.168 -27.7505 0.18618 19.0805 44.4054 31.762 -46.7367 -31.5079 1.30622 -1.56848 0.0462048 0.000533403 0.662642 -1.21896 23.3601 -0.972592 2.77821e-012 -5.55681e-009 -1.55847e-013 -4.52126 10.9652 13.6435 -8.82781e-032 7.95139e-016 6.36111e-015 -169.275 -62.7741 -140.616 -94.8539 60.8991 -20.7599 19.0022 17.5509 -15.6596 18.2022 7.53574 -3.3666 100.449 -10.7299 67.3636 31.3641 60.4047 94.9538 14.6684 19.368 -0.686946 18.9778 -8.47467 -8.19636 -23.498 16.2454 60.4148 27.2477 -3.00224 1.51515 -1.18447e-009 1.5602e-007 -4.87131e-009 
-131.224 98.2596 -433.026 12.4446 10.6679 134.905 -26.7879 1.02919 19.3177 42.7005 29.5161 -45.8783 -31.3114 1.59094 -1.57631 0.0462048 0.000533403 0.662642 -0.748404 22.9966 -1.13578 2.77901e-012 -5.55681e-009 -1.46306e-013 -5.04607 11.5064 13.7204 -7.95139e-016 0 9.54166e-015 -170.161 -63.4064 -141.494 -94.4631 60.6898 -21.1902 18.953 17.6535 -15.7754 17.7181 7.67627 -3.43604 100.788 -9.75467 66.8783 30.0324 61.5643 94.5603 13.2487 19.5049 0.38744 20.6104 -8.69999 -9.1961 -24.1196 17.3473 60.6317 6.91036 -4.36219 0.423836 -1.18446e-009 1.5602e-007 -4.87131e-009 
-130.835 97.8207 -431.825 12.431 10.6217 134.624 -26.0236 1.66836 19.5526 41.7031 27.7437 -45.6386 -30.9732 1.34115 -1.55449 0.0462048 0.000533403 0.662642 -0.248458 22.6122 -1.30131 2.7806e-012 -5.55681e-009 -1.59028e-013 -5.50188 12.0092 13.8352 7.95139e-016 0 -0 -171.08 -63.9906 -142.54 -94.0116 60.4645 -21.6821 18.8767 17.7873 -15.8959 17.4113 7.77715 -3.68227 101.252 -8.12997 65.8226 26.9408 64.0163 95.4158 11.3383 19.5045 1.51566 22.1395 -8.84814 -11.1656 -23.7045 17.8397 61.2891 -13.682 -4.08308 -1.00303 -1.18446e-009 1.5602e-007 -4.87131e-009 
-130.447 97.386 -430.541 12.443 10.5362 134.338 -25.2127 2.31361 19.7302 40.6741 26.0802 -45.3641 -30.515 1.16628 -1.53188 0.0462048 0.000533403 0.662642 0.329768 22.2094 -1.48871 2.77941e-012 -5.55681e-009 -1.36764e-013 -5.89019 12.4778 13.989 3.97569e-016 0 3.18055e-015 -172.019 -64.5243 -143.744 -93.5119 60.2343 -22.2209 18.7687 17.9351 -16.002 17.1644 7.84519 -4.01067 101.937 -6.08067 64.417 22.3228 66.9856 97.8189 8.33671 19.8172 2.3487 22.7733 -11.2951 -13.5866 -24.3273 18.7925 63.65 -6.49224 -3.72265 -0.707991 -1.18446e-009 1.5602e-007 -4.87131e-009 
-130.084 96.8773 -429.223 12.5019 10.4086 134.058 -24.496 2.79106 19.8567 40.0047 24.7151 -45.3218 -29.9945 0.904198 -1.50165 0.0462048 0.000533403 0.662642 1.02278 21.7944 -1.71486 2.77941e-012 -5.55681e-009 -1.33583e-013 -6.21827 12.9207 14.1842 -3.97569e-016 0 3.18055e-015 -172.957 -65.0171 -145.058 -92.9554 60.0091 -22.7961 18.6488 18.0483 -16.0443 16.8787 7.90322 -4.42455 102.792 -3.89522 62.8122 16.4474 69.9449 102.183 6.03889 20.0117 2.44782 23.9546 -13.4984 -16.9967 -25.328 19.7855 66.8087 -12.0179 -3.3768 -0.900319 -1.18446e-009 1.5602e-007 -4.87131e-009 
-129.664 96.3986 -427.856 12.624 10.2518 133.787 -23.7779 3.16895 19.9223 39.5793 23.5741 -45.4297 -29.4882 0.644702 -1.48922 0.0462048 0.000533403 0.662642 1.84143 21.3827 -1.98063 2.77941e-012 -5.55681e-009 -1.43125e-013 -6.49578 13.3465 14.4186 -0 -3.97569e-016 -0 -173.879 -65.4871 -146.419 -92.3413 59.7969 -23.3877 18.5181 18.1068 -16.0104 16.5901 7.97434 -4.88802 103.647 -1.83166 61.0435 14.3425 68.1297 104.964 8.82569 20.5637 0.724498 24.5804 -15.865 -20.2127 -24.7912 22.8045 68.4683 -14.1021 -3.09838 -0.956571 -1.18447e-009 1.5602e-007 -4.87131e-009 
-129.268 95.9193 -426.425 12.8172 10.0811 133.533 -23.119 3.32805 19.9272 39.5626 22.7273 -45.8049 -29.0494 0.381383 -1.47081 0.0462048 0.000533403 0.662642 2.78375 20.9856 -2.28873 0.00123999 -0.00148002 -0.000569967 -6.73252 13.7654 14.6894 3.97569e-016 1.19271e-015 3.18055e-015 -174.777 -65.9558 -147.76 -91.675 59.6069 -23.9705 18.3941 18.0984 -15.9078 16.3193 8.07972 -5.41283 104.326 -0.0719631 59.0786 10.2885 68.4302 110.362 10.2643 20.3598 -1.27034 25.2402 -17.3313 -23.3561 -22.619 24.6138 68.9026 -24.5912 -3.01964 -1.28143 -1.18446e-009 1.5602e-007 -4.87131e-009 
-128.926 96.1603 -425.082 13.1015 9.97858 133.276 -22.0245 3.38611 19.7008 39.099 22.254 -45.3728 -28.4805 0.139452 -1.45127 0.0462048 0.000533403 0.662642 3.95622 20.0852 -2.91444 0.0162696 -0.0401007 -0.0169487 -6.82613 14.7634 14.9095 1.98785e-016 0 6.36111e-015 -174.497 -66.5275 -148.775 -91.123 59.6696 -25.5806 17.7405 20.2772 -20.1889 17.9656 5.72451 -5.82531 102.499 -0.804766 55.1235 5.53395 68.4454 117.944 8.85632 24.9523 -4.11809 25.1857 -18.9521 -26.1574 -20.7869 26.6871 67.886 -29.257 -2.59515 -1.5568 -1.18447e-009 1.5602e-007 -4.87132e-009 
-128.778 96.3482 -423.647 13.4927 9.9515 133.014 -20.5668 3.33671 19.2409 38.1463 22.2161 -44.1148 -27.6894 -0.0602323 -1.42592 0.0462048 0.000533403 0.662642 5.36194 18.7525 -3.84902 0.0188896 -0.0382007 -0.0168288 -6.79492 16.277 15.0175 -9.93923e-017 -3.47873e-016 -9.54166e-015 -173.089 -67.2053 -149.314 -90.7052 60.0088 -28.0921 16.7433 23.3278 -25.5939 20.8001 1.91847 -5.69594 98.5336 -3.6272 50.6329 2.62765 67.586 124.443 7.21273 31.5538 -7.72173 24.5742 -20.7377 -28.6907 -19.6198 29.0776 65.6439 -30.049 -2.34873 -1.56787 -1.18446e-009 1.5602e-007 -4.87131e-009 
-128.788 96.5781 -422.178 13.9458 9.99876 132.729 -18.9088 3.13085 18.5524 36.7632 22.6942 -42.0413 -26.6035 -0.274913 -1.39389 0.0462048 0.000533403 0.662642 6.9333 17.0277 -5.04324 0.0177597 -0.0319906 -0.0147091 -6.68272 18.3142 15.0019 -3.97569e-016 -7.95139e-016 -1.27222e-014 -170.357 -67.9933 -149.048 -90.1174 60.6063 -31.458 15.279 26.5676 -30.6026 24.4182 -2.50676 -4.70376 92.6628 -7.80977 46.3941 2.64326 65.8007 127.831 6.42952 38.7326 -12.0513 23.5393 -22.5527 -30.9496 -19.2165 31.6785 62.3494 -29.0529 -2.16603 -1.44853 -1.18446e-009 1.5602e-007 -4.87131e-009 
-128.953 96.8929 -420.823 14.4889 10.1313 132.358 -16.6328 2.54133 17.0409 33.9148 24.7524 -37.1721 -24.565 -0.675592 -1.3639 0.0462048 0.000533403 0.662642 8.99327 14.0838 -7.10616 0.0492588 -0.0723926 -0.0581981 -6.31729 22.0627 14.7465 -0 0 3.18055e-015 -162.151 -68.6215 -145.068 -88.1857 61.5809 -36.6482 10.9065 28.7512 -32.107 32.2261 -6.9962 -1.11945 79.7956 -15.3151 43.0048 5.3094 62.8932 125.739 9.8642 42.6587 -22.0383 21.7465 -24.1727 -32.0016 -21.3224 34.9567 56.6818 -24.4848 -1.65067 -0.944467 -1.18447e-009 1.5602e-007 -4.87132e-009 
-129.277 97.2851 -419.633 15.054 10.2495 131.857 -13.9653 1.48423 14.7498 29.5476 28.0907 -29.5897 -21.6552 -1.40404 -1.28566 0.0462048 0.000533403 0.662642 11.2642 10.2015 -9.92177 0.0435987 -0.0472628 -0.063409 -5.88315 27.3072 14.2122 1.59028e-015 1.59028e-015 -0 -150.027 -68.8331 -137.987 -85.1314 62.8298 -42.605 6.53139 29.0918 -30.0312 30.6171 -3.13468 -1.18192 76.9077 -21.3692 47.9967 8.59612 59.9968 120.066 3.69111 27.6994 -6.48108 19.9759 -25.1191 -31.7262 -24.4594 38.8782 49.4939 -24.8318 -1.2629 -0.872442 -1.18446e-009 1.5602e-007 -4.8713e-009 
-129.809 97.769 -418.582 15.5995 10.2555 131.153 -10.9536 0.0719627 11.7288 23.0464 31.7577 -18.8146 -17.9851 -2.17353 -1.16592 0.0462048 0.000533403 0.662642 13.7596 6.20813 -13.2439 0.0427886 -0.012793 -0.0692405 -5.78028 33.4111 13.4502 1.59028e-015 0 6.36111e-015 -136.417 -67.8833 -129.697 -80.915 64.118 -48.6653 -0.214343 27.4377 -26.579 29.113 1.15293 -0.739974 73.2685 -27.9174 53.1395 10.709 58.6204 113.612 6.58005 36.7269 -24.4286 18.2664 -25.7258 -29.9507 -25.7293 42.8467 40.4882 -24.3781 -0.693537 -0.505505 -1.18446e-009 1.5602e-007 -4.87132e-009 
-130.557 98.3688 -417.713 16.1098 10.0983 130.187 -8.48038 -1.88361 8.22663 15.7218 33.5824 -7.65284 -7.72235 -3.36446 -0.903284 0.0462048 0.000533403 0.662642 15.7565 2.82897 -15.8113 -0.0262996 0.0315208 0.0190393 -5.53909 38.7013 12.3639 -1.76556e-031 1.59028e-015 6.36111e-015 -122.097 -64.8003 -121.472 -76.3531 65.4851 -54.0572 7.52107 23.1258 -8.76848 28.4005 4.75116 -0.17336 69.2168 -34.5464 58.1406 13.3243 59.1182 104.182 -6.85672 27.7248 0.792333 16.8906 -25.8079 -26.6184 -24.2712 46.4015 29.1579 -23.3373 -0.12352 -0.196425 -1.18447e-009 1.5602e-007 -4.87132e-009 
-131.484 98.8578 -417.101 16.5466 9.37552 127.135 -5.89179 -4.38058 5.94614 7.78153 35.1535 3.93698 2.59206 -3.59923 -0.101094 0.0462048 0.000533403 0.662642 17.6714 0.413623 -15.8993 -0.0347095 0.033541 0.0211594 -5.33876 43.2224 11.3156 -0 -4.77083e-015 -0 -110.296 -60.9973 -116.033 -71.3397 63.9009 -56.2239 4.91523 20.9443 -6.62497 27.7176 7.87944 0.111252 65.1622 -40.0751 62.5737 21.1213 60.3263 94.8782 -6.44466 21.4804 -2.40365 16.6756 -25.2501 -20.1257 -23.3281 50.6333 19.6758 -20.9517 0.242253 0.103099 -1.18446e-009 1.5602e-007 -4.87131e-009 
-132.655 99.4515 -416.514 16.6727 8.17847 122.41 -2.80609 -7.30297 4.51081 1.706 34.7194 9.87108 1.19832 -3.66723 -0.1422 0.0462048 0.000533403 0.662642 20.0589 -0.46803 -15.1143 -0.0100713 0.090207 -0.0706936 -6.642 46.0771 12.0494 -3.18055e-015 0 3.18055e-015 -102.397 -58.298 -115.037 -66.885 60.0505 -55.8781 9.60663 20.2583 1.56896 26.2726 10.3772 1.7585 63.5391 -42.0305 66.028 26.3403 61.9524 88.5624 -10.6768 17.516 6.36537 17.0444 -23.7722 -11.3532 -17.0733 53.1269 7.76911 -19.3104 0.517954 0.0325881 -1.18447e-009 1.5602e-007 -4.87132e-009 
